<?xml version="1.0" standalone="no"?><svg xmlns="http://www.w3.org/2000/svg" viewBox="0 0 1440 320"><path fill="#d7bde2" fill-opacity="1" d="M0,192L18.5,186.7C36.9,181,74,171,111,160C147.7,149,185,139,222,122.7C258.5,107,295,85,332,101.3C369.2,117,406,171,443,181.3C480,192,517,160,554,138.7C590.8,117,628,107,665,122.7C701.5,139,738,181,775,197.3C812.3,213,849,203,886,186.7C923.1,171,960,149,997,149.3C1033.8,149,1071,171,1108,149.3C1144.6,128,1182,64,1218,58.7C1255.4,53,1292,107,1329,144C1366.2,181,1403,203,1422,213.3L1440,224L1440,320L1421.5,320C1403.1,320,1366,320,1329,320C1292.3,320,1255,320,1218,320C1181.5,320,1145,320,1108,320C1070.8,320,1034,320,997,320C960,320,923,320,886,320C849.2,320,812,320,775,320C738.5,320,702,320,665,320C627.7,320,591,320,554,320C516.9,320,480,320,443,320C406.2,320,369,320,332,320C295.4,320,258,320,222,320C184.6,320,148,320,111,320C73.8,320,37,320,18,320L0,320Z"></path></svg>